# xmcd CD database file
#
# Track frame offsets:
#	150
#	14734
#	24177
#	36004
#	45361
#	58644
#	69911
#	80648
#	90490
#	107001
#
# Disc length: 1547 seconds
#
# Revision: 0
# Processed by: cddbd v1.5.1PL0 Copyright (c) Steve Scherf et al.
# Submitted via: CDex 1.51
#
DISCID=7006090a
DTITLE=Los alegres de Teran - Por siempre
DYEAR=2001
DGENRE=Country
TTITLE0=Mujer bonita
TTITLE1=Una viuda con dinero
TTITLE2=Te quiero más
TTITLE3=Canción de un preso
TTITLE4=Mis borracheras
TTITLE5=Alma mía de mi grandota
TTITLE6=Aunque no seas mía
TTITLE7=Margarita
TTITLE8=El chivero
TTITLE9=Si volvieras
EXTD=YEAR: 2001
EXTT0=
EXTT1=
EXTT2=
EXTT3=
EXTT4=
EXTT5=
EXTT6=
EXTT7=
EXTT8=
EXTT9=
PLAYORDER=
